# xmcd
#
# Track frame offsets: 
#        150
#        18993
#        37304
#        55145
#        75137
#        93666
#        111375
#        129475
#        146736
#        167295
#        188159
#
# Disc length: 2737 seconds
#
# Revision: 1
# Processed by: cddbd v1.5.2PL0 Copyright (c) Steve Scherf et al.
# Submitted via: ExactAudioCopy v1.0b3
#
DISCID=8d0aaf0b
DTITLE=Carl Ferris - Evolution
DYEAR=1900
DGENRE=Jazz
TTITLE0=CARL "SAFE SAX" FERRIS - EVOLUTION
TTITLE1=CARL "SAFE SAX" FERRIS - OUTSKIRTS
TTITLE2=CARL "SAFE SAX" FERRIS - STEPPIN' ON IT
TTITLE3=CARL "SAFE SAX" FERRIS - THE ONE YOU LOVE
TTITLE4=CARL "SAFE SAX" FERRIS - ELEMENTS
TTITLE5=CARL "SAFE SAX" FERRIS - TURTLE JUNCTION
TTITLE6=CARL "SAFE SAX" FERRIS - MEET ME UNDER THE LIGHTS
TTITLE7=CARL "SAFE SAX" FERRIS - HIT BY A TRAIN
TTITLE8=CARL "SAFE SAX" FERRIS - TIME WENT BY
TTITLE9=CARL "SAFE SAX" FERRIS - TIN TREASURES
TTITLE10=CARL "SAFE SAX" FERRIS - DON'T IT FEEL GOOD
EXTD=
EXTT0=
EXTT1=
EXTT2=
EXTT3=
EXTT4=
EXTT5=
EXTT6=
EXTT7=
EXTT8=
EXTT9=
EXTT10=
PLAYORDER=
